<?xml version="1.0" encoding="UTF-8" ?>
<svg version="1.1" width="16" height="16" xmlns="http://www.w3.org/2000/svg" shape-rendering="crispEdges">
<rect x="4" y="5" width="1" height="1" fill="#FFFFFF" />
<rect x="5" y="5" width="1" height="1" fill="#FFFFFF" />
<rect x="6" y="5" width="1" height="1" fill="#FFFFFF" />
<rect x="7" y="5" width="1" height="1" fill="#FFFFFF" />
<rect x="8" y="5" width="1" height="1" fill="#FFFFFF" />
<rect x="9" y="5" width="1" height="1" fill="#FFFFFF" />
<rect x="10" y="5" width="1" height="1" fill="#FFFFFF" />
<rect x="11" y="5" width="1" height="1" fill="#FFFFFF" />
<rect x="4" y="7" width="1" height="1" fill="#FFFFFF" />
<rect x="5" y="7" width="1" height="1" fill="#FFFFFF" />
<rect x="6" y="7" width="1" height="1" fill="#FFFFFF" />
<rect x="7" y="7" width="1" height="1" fill="#FFFFFF" />
<rect x="8" y="7" width="1" height="1" fill="#FFFFFF" />
<rect x="9" y="7" width="1" height="1" fill="#FFFFFF" />
<rect x="10" y="7" width="1" height="1" fill="#FFFFFF" />
<rect x="11" y="7" width="1" height="1" fill="#FFFFFF" />
<rect x="4" y="9" width="1" height="1" fill="#FFFFFF" />
<rect x="5" y="9" width="1" height="1" fill="#FFFFFF" />
<rect x="6" y="9" width="1" height="1" fill="#FFFFFF" />
<rect x="7" y="9" width="1" height="1" fill="#FFFFFF" />
<rect x="8" y="9" width="1" height="1" fill="#FFFFFF" />
<rect x="9" y="9" width="1" height="1" fill="#FFFFFF" />
<rect x="10" y="9" width="1" height="1" fill="#FFFFFF" />
<rect x="11" y="9" width="1" height="1" fill="#FFFFFF" />
</svg>